<svg width="441" height="356" viewBox="0 0 441 356" fill="none" xmlns="http://www.w3.org/2000/svg">
<path d="M281.442 184.386C288.725 180.127 296.527 176.327 304.9 175.338C313.273 174.348 322.412 176.554 328.15 182.748C332.759 187.729 334.761 194.711 339.45 199.619C342.704 203.03 347.048 205.196 351.514 206.724C368.166 212.373 387.597 208.957 401.321 197.97C405.05 194.995 409.064 191.253 413.806 191.841C419.412 192.538 422.499 199.474 420.978 204.924C419.457 210.373 414.798 214.319 410.017 217.327C389.663 230.132 359.949 232.918 337.407 224.567C325.455 220.132 319.367 200.069 307.858 201.513C300.508 202.431 296.153 210.145 293.738 216.183C291.452 221.879 288.139 224.665 281.987 224.713C275.834 224.761 269.427 222.279 265.938 217.239C257.608 205.258 271.814 190.033 281.442 184.386Z" fill="#D17A1C"/>
<path d="M144.035 170.554C144.902 166.921 145.966 163.296 147.782 160.032C151.041 154.18 156.638 149.803 162.892 147.408C169.147 145.013 176.028 144.512 182.683 145.288C183.823 145.423 185.003 145.61 185.949 146.259C186.896 146.909 187.532 148.155 187.127 149.228C186.722 150.301 185.038 150.732 184.379 149.793C185.665 149.924 186.71 150.708 186.44 151.977C186.305 152.825 184.712 152.443 183.865 152.375C185.343 152.405 186.101 153.349 185.809 154.493C185.367 156.236 173.93 154.96 168.879 158.216C165.264 160.536 163.681 165.374 163.594 169.667C163.38 180.196 172.894 194.35 174.169 198.867C175.01 201.853 165.076 210.739 162.673 212.703C161.221 213.894 159.371 214.477 157.541 214.89C152.792 215.956 147.324 215.856 143.659 212.653C138.15 207.837 139.712 200.239 140.61 193.912C141.719 186.064 142.193 178.265 144.035 170.554Z" fill="#D17A1C"/>
<path d="M134.805 251.505C150.587 251.588 166.372 251.675 182.153 251.605C206.125 251.502 230.322 251.013 253.679 245.292C261.545 243.367 269.655 240.617 275.237 234.443C280.125 229.038 282.484 221.612 283.806 214.28C285.033 207.438 285.465 200.221 283.329 193.64C280.923 186.216 275.428 180.261 269.144 176.086C253.283 165.532 232.9 165.579 214.63 170.136C196.36 174.694 179.235 183.345 161.282 189.156C151.104 192.452 140.653 194.835 130.053 196.277C118.708 197.816 107.216 198.267 96.006 200.67C84.7964 203.073 73.6372 207.673 65.5247 216.215C59.5159 222.533 50.9792 240.615 62.4861 245.624C69.0211 248.468 77.3452 248.712 84.3124 249.477C92.2508 250.346 100.224 250.817 108.209 251.094C117.071 251.406 125.938 251.454 134.805 251.505Z" fill="#E2881B"/>
<path d="M275.432 249.211L382.374 248.555C384.263 248.542 386.413 248.413 387.606 246.949C388.799 245.485 387.465 242.54 385.721 243.257C386.019 243.362 386.337 243.395 386.651 243.355C386.964 243.316 387.264 243.203 387.527 243.027C387.789 242.852 388.007 242.617 388.163 242.342C388.319 242.068 388.409 241.761 388.426 241.445C388.442 241.13 388.385 240.815 388.259 240.525C388.132 240.236 387.94 239.98 387.697 239.777C387.455 239.575 387.168 239.432 386.86 239.36C386.553 239.287 386.233 239.287 385.925 239.36C387.556 239.539 388.823 237.28 387.818 235.985C378.08 236.71 368.234 237.428 358.598 235.85C350.029 234.446 341.87 231.26 333.781 228.096C324.808 224.582 315.493 220.841 309.022 213.697C306.309 210.7 304.186 207.193 301.338 204.326C296.163 199.11 288.833 196.348 281.5 195.87C274.168 195.392 266.822 197.067 259.982 199.745C246.159 205.188 234.255 214.595 225.767 226.782C223.014 230.753 220.569 235.289 220.807 240.113C221.367 251.577 232.889 250.167 240.842 249.837C252.365 249.353 263.901 249.282 275.432 249.211Z" fill="#E2881B"/>
<path d="M218.59 166.522C217.682 161.152 217.353 155.607 218.479 150.278C220.134 142.425 224.884 135.471 230.717 129.97C236.549 124.469 243.502 120.268 250.5 116.33C263.451 109.037 277.131 102.363 291.877 100.511C293.213 100.341 294.757 100.284 295.687 101.266C296.616 102.247 295.803 104.403 294.533 103.954C295.369 103.245 296.91 103.812 297.078 104.893C297.246 105.975 295.981 106.996 294.962 106.589C295.545 106.337 296.202 106.314 296.802 106.525C297.402 106.735 297.9 107.164 298.198 107.726C296.327 109.139 293.947 109.619 291.686 110.231C284.92 112.073 278.647 115.392 273.318 119.948C270.281 122.551 267.526 125.609 265.946 129.289C264.365 132.968 264.026 137.161 264.008 141.214C263.978 147.05 264.517 152.914 266.03 158.541C268.92 169.225 275.239 178.701 282.548 187.008C289.858 195.314 298.214 202.646 306.039 210.478C308.229 212.675 310.394 214.925 312.105 217.512C312.878 218.683 313.577 220.013 313.45 221.41C313.204 224.205 310.028 225.608 307.343 226.424C295.058 230.154 282.1 233.68 269.575 230.867C260.041 228.728 251.561 222.977 245.058 215.69C238.672 208.528 234.945 200.192 230.585 191.766C226.059 183.021 220.307 176.658 218.59 166.522Z" fill="#E2881B"/>
<path d="M18.6482 200.09C26.4311 198.583 34.3917 198.214 42.2808 198.993C43.753 199.142 45.2919 199.349 46.5057 200.198C48.3215 201.461 48.9794 203.803 49.3864 205.974C50.5805 212.337 50.6775 218.856 49.6734 225.252C48.4805 232.728 44.9863 231.281 40.0118 227.242C30.9606 219.89 23.6624 210.614 18.6482 200.09Z" fill="#E2881B"/>
<path d="M98.9948 145.145C96.196 152.557 94.488 160.336 93.9241 168.239C93.8194 169.718 93.7677 171.266 94.3984 172.607C95.3379 174.606 97.538 175.65 99.6115 176.418C105.683 178.671 112.096 179.869 118.572 179.962C126.15 180.048 125.312 176.37 122.166 170.781C116.445 160.621 108.529 151.863 98.9948 145.145Z" fill="#E2881B"/>
<path d="M126.152 245.405C134.043 243.467 141.999 241.107 148.715 236.522C155.432 231.937 160.786 224.765 161.381 216.666C161.742 211.769 160.349 206.864 158.118 202.49C156.377 199.065 154.041 195.859 150.803 193.811C147.642 191.811 143.866 191.067 140.163 190.527C121.222 187.771 101.904 189.282 83.6217 194.948C74.4787 197.789 65.0915 202.134 60.1234 210.313C57.9587 213.876 56.7806 217.95 55.9481 222.037C54.7804 227.775 54.2864 233.9 55.8221 239.608C57.2569 244.945 59.1142 246.505 64.2105 247.713C77.1844 250.786 90.2936 251.205 103.511 249.629C111.137 248.685 118.699 247.274 126.152 245.405Z" fill="#B76B18"/>
<path d="M67.0046 172.041C60.3575 174.048 53.4261 181.212 48.9704 186.534C43.938 192.533 41.4684 200.421 41.0688 208.249C40.6691 216.077 42.2197 223.894 44.5093 231.39C45.4378 234.436 46.5449 237.532 48.7051 239.874C51.957 243.404 61.234 247.497 65.9892 248.136C93.4048 251.804 100.262 249.963 116.298 242.378C125.937 237.812 131.839 228.577 139.292 220.943C142.27 217.888 145.161 214.656 147.06 210.837C151.02 202.871 149.962 192.668 144.457 185.683C137.626 177.02 124.591 170.295 113.59 169.252C98.4812 167.776 81.7284 167.595 67.0046 172.041Z" fill="#E2881B"/>
<path d="M89.9293 210.335C89.4014 210.948 89.012 211.754 89.1484 212.553C89.2865 213.156 89.6171 213.698 90.0904 214.097C91.4849 215.397 93.4455 215.881 95.3542 216.075C97.263 216.27 99.19 216.231 101.042 216.699C101.808 214.509 102.36 212.25 102.692 209.954C102.875 208.989 102.886 207.998 102.724 207.029C102.52 206.073 101.954 204.862 101.081 204.427C100.111 203.946 96.9835 203.808 95.6668 206.191C95.2267 206.986 94.7847 207.709 94.7972 208.597C93.0718 208.223 91.0685 209.013 89.9293 210.335Z" fill="#593E39"/>
<path d="M116.83 219.66C116.745 219.593 116.637 219.561 116.529 219.572C116.421 219.584 116.322 219.636 116.252 219.719C114.602 221.479 112.32 222.808 109.87 222.904C107.188 223.013 104.834 221.396 103.158 219.416C103.035 219.268 102.913 219.12 102.797 218.968L102.67 218.694C101.848 216.931 100.851 215.255 99.6961 213.689C99.3655 213.265 98.7115 213.744 99.0285 214.167C99.2068 214.404 99.3782 214.645 99.5463 214.886C99.4951 214.957 99.4668 215.042 99.465 215.13C99.4632 215.218 99.4881 215.304 99.5363 215.377C100.303 216.762 101.159 218.095 102.101 219.368C102.638 220.546 103.089 221.761 103.451 223.005C103.682 223.721 103.797 224.469 103.793 225.221C103.746 225.944 103.592 226.656 103.336 227.334C102.274 230.336 100.213 232.883 97.499 234.55C97.4114 234.614 97.3522 234.709 97.3342 234.816C97.3161 234.923 97.3407 235.032 97.4026 235.121C97.4674 235.208 97.5634 235.267 97.6705 235.285C97.7776 235.303 97.8875 235.279 97.9772 235.217C100.659 233.559 102.736 231.083 103.903 228.155C104.208 227.423 104.426 226.657 104.553 225.874C104.654 225.088 104.611 224.29 104.424 223.519C104.242 222.721 104.009 221.935 103.726 221.166C104.284 221.693 104.897 222.16 105.553 222.559C106.748 223.295 108.117 223.704 109.52 223.745C110.817 223.747 112.098 223.458 113.268 222.899C114.628 222.257 115.854 221.362 116.879 220.261C116.917 220.219 116.947 220.17 116.965 220.116C116.984 220.063 116.991 220.006 116.986 219.95C116.982 219.893 116.965 219.838 116.938 219.788C116.912 219.738 116.875 219.695 116.83 219.66Z" fill="#593E39"/>
<path d="M58.8478 217.524C59.801 214.669 62.2406 212.437 65.0766 211.393C67.9126 210.349 71.065 210.424 73.9583 211.235C76.7198 212.019 79.4341 213.63 80.6395 216.231C79.8015 215.414 78.5829 215.135 77.423 214.972C73.507 214.418 69.2862 214.851 66.0457 217.114C62.8051 219.377 60.9279 223.813 62.4034 227.476C61.89 226.201 59.8197 224.942 59.1477 223.465C58.3154 221.59 58.2085 219.473 58.8478 217.524Z" fill="#593E39"/>
<path d="M102.489 187.383C103.442 184.528 105.882 182.293 108.717 181.249C111.553 180.205 114.706 180.283 117.599 181.091C120.361 181.876 123.075 183.486 124.28 186.09C123.442 185.27 122.224 184.994 121.064 184.828C117.148 184.278 112.927 184.707 109.687 186.97C106.446 189.233 104.569 193.669 106.048 197.332C105.531 196.061 103.464 194.802 102.789 193.321C101.956 191.447 101.849 189.331 102.489 187.383Z" fill="#593E39"/>
<path d="M50.0284 187.878C49.7653 187.303 49.5027 186.708 49.281 186.103L48.9717 186.473C47.3189 188.459 45.9201 190.643 44.8074 192.974C47.2469 195.759 50.5927 198.335 53.087 200.26C56.0885 202.575 59.4117 204.441 62.9518 205.798C56.6092 201.83 53.1256 194.682 50.0284 187.878Z" fill="#B76B18"/>
<path d="M74.9478 202.249C69.227 194.88 67.2846 185.147 61.6191 177.724C61.1007 177.036 60.5477 176.377 60.036 175.689C57.1476 177.866 54.4696 180.308 52.037 182.983C61.4087 186.59 66.3059 197.108 74.9478 202.249Z" fill="#B76B18"/>
<path d="M72.2903 170.603C70.5052 171.001 68.7437 171.461 67.0058 171.984C65.6727 172.402 64.3889 172.964 63.1769 173.658C63.5072 173.91 63.819 174.184 64.1098 174.48C65.6348 176.037 66.6186 178.026 67.6479 179.945C71.251 186.659 75.6703 192.903 80.8054 198.535C79.0654 189.857 77.2902 181.076 73.5017 173.075C73.1116 172.243 72.6976 171.425 72.2903 170.603Z" fill="#B76B18"/>
<path d="M85.7142 170.387C85.4749 169.813 85.215 169.249 84.9346 168.694C82.7299 168.88 80.5339 169.133 78.3637 169.459C82.633 174.81 86.0096 180.815 88.3632 187.242C88.4353 181.519 87.9195 175.686 85.7142 170.387Z" fill="#B76B18"/>
<path d="M100.766 157.301C100.802 156.808 101.003 156.341 101.335 155.974C101.864 155.51 102.698 155.663 103.327 155.957C104.737 156.633 105.745 157.918 106.669 159.177C109.283 162.746 111.634 166.499 113.706 170.406C113.578 170.167 111.336 170.182 110.998 170.155C110.033 170.071 109.068 170 108.099 169.933C106.165 169.806 104.231 169.716 102.296 169.653C101.082 169.628 99.9573 169.575 99.5841 168.242C99.211 166.909 99.6481 165.091 99.8153 163.702C100.071 161.558 100.388 159.425 100.766 157.301Z" fill="#E5CAC6"/>
<path d="M27.7635 207.135C33.0042 206.475 38.2941 206.292 43.568 206.588C42.3918 212.719 42.8972 219.053 45.0306 224.92C41.9182 222.874 39.1946 219.718 36.6308 217.042C35.1 215.435 33.6107 213.792 32.1386 212.135C31.5978 211.541 28.3959 207.056 27.7635 207.135Z" fill="#E5CAC6"/>
<path d="M324.221 196.015C325.989 192.468 327.861 188.809 330.51 185.927C329.765 184.804 328.934 183.74 328.024 182.745C326.497 181.107 324.726 179.715 322.774 178.619C320.686 187.05 316.503 194.984 314.934 203.466C316.346 204.449 317.651 205.577 318.827 206.833L324.221 196.015Z" fill="#B76B18"/>
<path d="M413.681 191.838C409.913 191.372 406.597 193.637 403.526 196.086C404.275 197.104 404.95 198.175 405.547 199.289C408.291 204.429 409.856 210.196 413.308 214.879L413.348 214.93C416.773 212.288 419.708 209.026 420.853 204.914C422.374 199.485 419.29 192.535 413.681 191.838Z" fill="#B76B18"/>
<path d="M313.41 175.466C310.552 175.038 307.65 174.994 304.781 175.335C302.75 175.579 300.74 175.976 298.768 176.521C299.008 178.899 299.686 181.417 300.022 183.424C300.727 187.695 301.575 191.938 302.568 196.152C303.035 198.286 303.709 200.37 304.579 202.375C305.584 201.939 306.646 201.648 307.733 201.51C308.583 201.402 309.443 201.413 310.289 201.542C310.267 192.475 309.183 183.183 313.41 175.466Z" fill="#B76B18"/>
<path d="M326.136 215.441C328.069 214.318 329.761 212.641 331.337 211.019L340.186 201.932C340.439 201.672 340.699 201.41 340.958 201.151C340.392 200.668 339.842 200.159 339.324 199.62C338.162 198.377 337.121 197.027 336.215 195.587C335.144 197.29 333.905 198.882 332.517 200.339C329.165 203.897 325.235 207.065 322.555 211.091C323.734 212.525 324.921 214.003 326.136 215.441Z" fill="#B76B18"/>
<path d="M388.656 207.579C388.391 206.933 388.157 206.274 387.939 205.612C385.643 206.514 383.288 207.259 380.891 207.842C382.252 214.309 382.481 221.255 385.192 227.164C388.876 226.357 392.502 225.307 396.047 224.022C394.987 218.306 390.92 213.146 388.656 207.579Z" fill="#B76B18"/>
<path d="M371.044 229.147C371.549 226.47 371.83 223.755 371.887 221.03L372.361 209.235C369.963 209.43 367.555 209.466 365.152 209.342C364.499 213.288 362.959 217.127 361.92 221.035C361.222 223.711 360.772 226.447 360.577 229.206C364.065 229.386 367.559 229.367 371.044 229.147Z" fill="#B76B18"/>
<path d="M346.617 227.31C349.793 223.482 352.363 219.191 354.237 214.585C355.083 212.5 355.855 210.269 356.849 208.225C355.13 207.852 353.433 207.389 351.763 206.837C346.99 212.902 340.488 217.793 336.639 224.301C336.855 224.39 337.066 224.479 337.285 224.558C340.33 225.684 343.448 226.603 346.617 227.31Z" fill="#B76B18"/>
<path d="M171.448 210.454C171.918 212.528 173.293 214.288 174.875 215.706C181.063 221.255 190.098 222.089 198.403 221.78C206.022 221.5 213.588 220.491 221.144 219.482L260.553 214.222C264.035 213.757 267.582 213.277 270.776 211.779C273.971 210.281 276.766 207.582 277.49 204.143C277.959 201.919 277.525 199.592 276.768 197.448C274.658 191.447 270.206 186.598 265.605 182.197C263.506 180.185 261.331 178.209 258.789 176.795C254.708 174.522 249.893 173.831 245.225 174.062C240.557 174.293 235.981 175.389 231.437 176.494C220.555 179.15 209.664 181.909 199.127 185.742C194.084 187.575 189.28 189.843 184.367 191.977C181.65 193.159 178.767 194.015 176.611 196.148C173.137 199.568 170.33 205.551 171.448 210.454Z" fill="#F2AE25"/>
<path d="M133.987 228.498C134.472 219.33 140.274 210.635 148.558 206.668C155.017 203.573 162.446 203.303 169.602 203.611C174.868 203.837 180.306 204.398 184.886 207.006C186.036 207.659 187.211 208.575 187.436 209.881C187.66 211.187 186.263 212.677 185.092 212.057C185.936 212.945 186.539 213.442 186.262 214.717C185.939 215.809 184.492 215.902 183.404 215.89C184.635 215.718 185.085 217.754 184.153 218.579C183.22 219.404 181.818 219.301 180.584 219.154C176.761 218.697 172.801 218.301 169.131 219.508C165.46 220.715 162.21 223.987 162.26 227.842C162.301 230.693 164.078 233.21 165.964 235.346C170.317 240.223 175.599 244.183 181.501 246.996C187.403 249.809 193.807 251.419 200.338 251.73C188.962 256.146 176.498 256.693 164.506 255.05C155.814 253.857 145.073 253.066 139.435 245.62C135.746 240.732 133.669 234.64 133.987 228.498Z" fill="#D17A1C"/>
</svg>
