<svg width="498" height="450" viewBox="0 0 498 450" fill="none" xmlns="http://www.w3.org/2000/svg">
<path d="M359.792 219.854C365.136 212.59 363.417 202.254 359.476 194.146C355.535 186.038 349.676 178.857 346.773 170.319C344.988 164.889 344.469 159.123 345.255 153.462C346.041 147.801 348.111 142.394 351.308 137.654C357.672 128.377 367.965 122.476 378.578 118.687C389.191 114.899 400.337 112.931 411.126 109.683C421.109 106.672 430.729 102.573 439.813 97.4575C445.452 94.2847 451.121 90.457 454.029 84.6826C456.936 78.9082 455.986 70.7344 450.418 67.4385C468.152 77.9194 477.059 99.6592 476.487 120.239C476.302 126.958 475.168 133.805 471.93 139.685C467.356 147.929 458.968 153.488 450.123 156.779C441.278 160.071 431.852 161.389 422.584 163.165C417.579 164.123 412.468 165.278 408.237 168.113C402.761 171.773 399.356 177.873 397.311 184.131C395.266 190.389 394.382 196.967 392.758 203.348C389.747 215.146 384.245 226.163 376.621 235.661C371.606 241.897 364.701 247.821 356.709 247.351C355.507 247.344 354.332 246.99 353.326 246.331C352.489 245.632 351.854 244.722 351.488 243.694C349.201 238.131 350.872 231.746 353.3 226.244C355.728 220.742 358.913 215.442 359.792 209.492V219.854Z" fill="#E8E8E8"/>
<path d="M455.146 70.3696C462.113 81.1362 465.496 94.5395 465.139 107.459C464.95 114.179 463.82 121.025 460.578 126.905C456.008 135.149 447.616 140.708 438.775 144C429.934 147.291 420.491 148.61 411.254 150.385C406.249 151.348 401.138 152.499 396.902 155.333C391.426 158.994 388.026 165.094 385.981 171.356C383.935 177.618 383.051 184.188 381.428 190.569C378.415 202.366 372.913 213.383 365.29 222.882C361.437 227.676 356.467 232.277 350.745 233.943C350.173 237.16 350.252 240.403 351.488 243.404C351.853 244.432 352.488 245.343 353.327 246.041C354.331 246.702 355.506 247.056 356.709 247.061C364.701 247.531 371.606 241.611 376.621 235.371C384.245 225.873 389.747 214.856 392.759 203.058C394.382 196.677 395.261 190.103 397.311 183.845C399.361 177.587 402.761 171.488 408.237 167.823C412.468 164.988 417.579 163.837 422.584 162.879C431.852 161.121 441.282 159.803 450.123 156.494C458.964 153.185 467.356 147.643 471.93 139.395C475.19 133.515 476.303 126.65 476.487 119.949C476.989 101.285 469.718 81.6812 455.146 70.3696Z" fill="#D8D8D8"/>
<path d="M284.139 259.603C283.748 269.626 287.262 279.176 292.056 287.728C295.544 293.999 299.758 299.918 305.12 304.792C311.467 310.562 319.247 314.71 326.712 319.162C337.131 325.371 347.186 332.345 354.862 341.455C362.537 350.565 367.665 362.008 367.252 374.124C367.182 376.181 366.992 378.4 368.132 380.079C369.271 381.757 371.259 381.836 372.715 379.639C372.438 381.287 373.221 382.228 374.474 382.54C377.016 382.509 377.993 381.142 378.283 378.725C378.587 379.947 379.211 381.458 380.236 381.327C381.995 380.975 382.721 379.094 383.381 377.473C385.958 371.149 386.077 367.036 385.831 361.028C385.101 343.778 383.223 326.596 380.21 309.595C377.561 294.308 373.87 279.22 369.161 264.437C365.202 252.132 360.047 239.537 349.544 231.71C326.918 214.849 285.349 229.096 284.139 259.603Z" fill="#D8D8D8"/>
<path d="M122.536 310.887C124.955 321.082 131.773 329.73 139.664 336.652C141.995 338.704 144.911 340.761 147.95 340.088C148.445 338.744 148.445 337.267 147.95 335.922C148.702 336.722 149.698 337.252 150.782 337.428C151.866 337.605 152.978 337.418 153.945 336.898L152.846 334.327C153.061 335.852 155.423 336.252 156.466 335.114C157.508 333.976 157.315 332.117 156.466 330.816C155.617 329.515 154.306 328.619 153.066 327.74C149.301 324.958 145.918 321.368 144.493 316.912C143.068 312.456 143.992 307.041 147.612 304.071C153.189 299.492 162.531 302.12 167.792 297.176C171.196 293.981 171.565 288.47 169.727 284.186C166.903 277.594 158.916 271.208 151.9 269.802C145.615 268.541 142.571 271.63 138.445 275.81C128.166 286.233 118.679 294.614 122.536 310.887Z" fill="#E8E8E8"/>
<path d="M133.4 258.139C136.708 271.969 141.581 285.68 150.079 296.552C160.134 309.419 174.675 317.426 189.744 321.337C204.813 325.248 220.494 325.336 235.963 324.466C264.795 322.827 293.35 317.943 321.086 309.907C330.727 307.116 340.439 303.864 348.735 297.826C366.94 284.572 375.622 259.251 374.685 235.375C374.369 227.36 372.842 218.826 367.626 213.179C364.6 209.905 360.615 207.905 356.63 206.332C333.177 196.963 307.42 198.778 282.472 199.925C257.524 201.072 231.358 201.155 209.075 188.877C201.704 184.821 194.886 179.468 187.083 176.506C181.417 174.394 175.345 173.596 169.325 174.173C163.306 174.75 157.496 176.687 152.336 179.837C127.115 195.236 126.952 231.183 133.4 258.139Z" fill="#E8E8E8"/>
<path d="M310.266 293.761C308.177 295.875 306.079 297.993 303.668 299.738C299.789 302.563 295.232 304.317 290.64 305.719C283.946 307.767 277.058 309.133 270.165 310.351C257.682 312.548 245.121 314.27 232.554 315.932C227.465 316.604 222.161 317.347 217.947 320.273C216.304 321.446 214.918 322.941 213.874 324.668C221.695 325.025 229.531 324.953 237.344 324.453C266.173 322.813 294.725 317.929 322.458 309.894H322.515C326.659 299.18 326.685 286.98 324.86 275.515C321.354 282.502 315.764 288.193 310.266 293.761Z" fill="#D8D8D8"/>
<path d="M123.886 216.246C122.426 228.275 125.052 240.445 131.342 250.805C131.71 246.417 133.261 242.211 135.828 238.632C134.174 246.814 137.781 255.3 143.116 261.725C148.452 268.15 155.397 272.988 161.863 278.257C168.328 283.526 174.618 289.547 177.745 297.277C183.564 282.208 195.392 269.082 196.527 252.967C198.865 257.689 200.097 262.881 200.129 268.15L213.689 246.001C215.035 248.668 215.809 251.585 215.963 254.566C225.303 243.567 232.082 230.633 235.813 216.699C237.054 212.032 237.951 207.158 237.23 202.381C236.082 194.832 230.914 188.319 224.553 184.096C218.193 179.873 210.712 177.658 203.243 176.049C184.884 172.094 164.603 171.286 146.798 178.132C133.418 183.278 125.54 202.957 123.886 216.246Z" fill="#D8D8D8"/>
<path d="M124.036 116.376C121.058 120.041 118.234 123.895 116.391 128.241C114.236 133.326 113.506 138.885 112.873 144.369C111.694 154.397 110.775 164.804 113.986 174.379C116.902 183.089 123.095 190.45 130.449 195.957C151.148 211.46 179.755 212.375 204.782 205.835C218.418 202.267 231.837 196.515 242.099 186.847C252.36 177.179 259.125 163.138 257.682 149.115C257.058 143.024 254.951 137.175 252.369 131.621C250.258 127.068 247.79 122.629 244.483 118.854C241.58 115.545 238.083 112.808 234.468 110.29C210.773 93.7837 170.365 80.8242 144 97.8442C136.312 102.788 129.754 109.327 124.036 116.376Z" fill="#E8E8E8"/>
<path d="M97.6453 140.287L102.695 141.249C93.0603 151.738 87.3418 165.226 86.5041 179.437C87.2113 177.308 88.541 175.44 90.3214 174.073C92.1019 172.706 94.2516 171.903 96.4929 171.769C93.6521 177.364 91.9658 183.473 91.5344 189.732C91.103 195.991 91.9351 202.273 93.9814 208.204C95.1267 204.118 97.2266 200.361 100.108 197.244L100.069 202.148C104.621 196.928 112.305 195.53 119.189 196.365C126.072 197.2 132.578 199.881 139.316 201.498C146.055 203.115 153.532 203.577 159.589 200.202C163.468 198.04 166.397 194.489 168.781 190.758C175.432 180.312 178.458 167.44 176.333 155.241C174.209 143.042 166.758 131.7 155.982 125.582C146.274 120.076 132.776 118.74 122.554 123.763C113.339 128.268 108.114 137.14 97.6453 140.287Z" fill="#E8E8E8"/>
<path d="M254.762 124.273C253.061 125.683 250.982 126.561 248.784 126.8C254.265 128.505 258.355 133.48 261.791 138.498C270.664 151.548 277.166 166.058 280.999 181.362C278.334 178.137 274.741 175.809 270.706 174.696L274.691 183.34C268.419 180.888 261.676 179.875 254.96 180.374C257.946 183.949 260.663 187.74 263.088 191.716C257.81 188.165 251.116 188.314 245.156 190.063C239.196 191.812 233.671 195.007 227.865 197.314C218.079 201.177 207.078 202.399 197.336 198.396C185.566 193.562 176.852 181.121 174.772 167.436C172.692 153.751 177.002 139.254 185.421 128.953C193.536 119.026 206.502 111.959 218.572 110.443C231.12 108.848 242.767 121.456 254.762 124.273Z" fill="#E8E8E8"/>
<path d="M115.877 108.984C115.877 105.297 115.877 101.571 116.757 97.998C116.878 97.3289 117.154 96.6971 117.561 96.1523C118.573 94.9834 120.39 95.0625 121.907 95.3525C129.279 96.7588 135.899 100.753 141.916 105.236C145.069 107.587 148.395 110.672 148.311 114.605C148.254 117.286 146.587 119.637 144.924 121.746C140.257 127.679 129.666 140.08 120.702 136.178C112.512 132.609 115.881 115.835 115.877 108.984Z" fill="#E8E8E8"/>
<path d="M228.165 97.1894C227.65 93.5376 227.122 89.8506 225.75 86.4272C225.538 85.782 225.176 85.1962 224.694 84.7178C223.529 83.7026 221.743 84.0366 220.296 84.5332C213.179 86.9634 207.188 91.8457 201.862 97.1191C199.064 99.8921 196.205 103.412 196.843 107.292C197.283 109.929 199.262 112.034 201.202 113.884C206.661 119.101 218.888 129.889 227.215 124.77C234.819 120.111 229.128 103.979 228.165 97.1894Z" fill="#E8E8E8"/>
<path d="M120.267 106.321C120.337 105.442 120.469 104.427 121.173 103.869C122.167 103.074 123.64 103.636 124.722 104.309C127.167 105.841 129.295 107.828 130.99 110.162C131.269 110.494 131.463 110.889 131.553 111.313C131.575 111.76 131.488 112.205 131.298 112.61C130.278 115.258 128.869 117.739 127.115 119.971C126.358 120.924 122.461 125.934 121.098 125.561C119.844 125.218 120.117 118.266 120.073 117.04C119.939 113.466 120.004 109.888 120.267 106.321Z" fill="#E5CAC6"/>
<path d="M218.567 89.3496C219.103 88.9137 219.776 88.6803 220.467 88.6904C221.541 88.8267 222.139 90.0088 222.477 91.0195C224.197 96.2578 223.99 101.909 223.762 107.42C222.627 108.101 221.171 107.701 219.939 107.213C217.095 106.092 214.41 104.604 211.952 102.788C210.953 102.05 209.159 100.762 209.207 99.3516C209.247 98.0728 210.94 96.6182 211.719 95.7041C213.693 93.2762 215.998 91.1372 218.567 89.3496Z" fill="#E5CAC6"/>
<path d="M131.126 138.582C130.649 142.102 131.45 145.678 133.385 148.659C135.32 151.64 138.26 153.83 141.672 154.831C145.084 155.833 148.742 155.579 151.983 154.117C155.224 152.655 157.833 150.08 159.338 146.861C159.05 148.982 158.308 151.015 157.161 152.823C156.013 154.631 154.489 156.169 152.692 157.333C150.894 158.498 148.866 159.261 146.747 159.569C144.627 159.878 142.465 159.726 140.41 159.122C138.355 158.519 136.454 157.48 134.838 156.075C133.223 154.669 131.93 152.932 131.048 150.982C130.166 149.031 129.717 146.913 129.73 144.773C129.744 142.633 130.22 140.521 131.126 138.582Z" fill="#E9F1F4"/>
<path d="M129.648 146.716C129.914 149.643 131.041 152.425 132.889 154.711C134.737 156.998 137.222 158.685 140.03 159.56C142.838 160.435 145.843 160.459 148.664 159.628C151.485 158.797 153.996 157.149 155.88 154.892C157.764 152.635 158.935 149.87 159.247 146.948C159.558 144.026 158.995 141.077 157.628 138.475C156.262 135.872 154.154 133.733 151.571 132.328C148.988 130.922 146.046 130.314 143.116 130.579C139.189 130.936 135.565 132.836 133.039 135.862C130.514 138.888 129.294 142.792 129.648 146.716Z" fill="white"/>
<path d="M129.165 146.777C128.891 143.756 129.52 140.721 130.973 138.056C132.425 135.391 134.636 133.217 137.325 131.808C140.015 130.399 143.062 129.818 146.082 130.139C149.102 130.46 151.958 131.669 154.291 133.612C156.623 135.555 158.326 138.145 159.185 141.056C160.044 143.966 160.02 147.065 159.116 149.962C158.211 152.858 156.468 155.422 154.105 157.329C151.743 159.235 148.868 160.399 145.843 160.673C141.79 161.03 137.759 159.768 134.634 157.164C131.508 154.56 129.542 150.826 129.165 146.777ZM130.137 146.689C130.393 149.519 131.484 152.209 133.271 154.419C135.058 156.629 137.461 158.26 140.176 159.106C142.89 159.952 145.795 159.974 148.523 159.171C151.25 158.367 153.678 156.774 155.499 154.592C157.321 152.41 158.453 149.737 158.754 146.912C159.055 144.087 158.511 141.236 157.19 138.72C155.869 136.204 153.831 134.135 151.334 132.776C148.837 131.417 145.992 130.828 143.16 131.084C139.367 131.431 135.865 133.267 133.424 136.189C130.983 139.111 129.801 142.881 130.137 146.672V146.689Z" fill="#E0BA99"/>
<path d="M133.91 146.922C134.082 148.838 134.819 150.66 136.028 152.158C137.237 153.655 138.863 154.76 140.701 155.334C142.539 155.907 144.505 155.923 146.352 155.379C148.199 154.835 149.843 153.756 151.075 152.278C152.308 150.8 153.074 148.99 153.276 147.077C153.479 145.164 153.109 143.234 152.213 141.532C151.317 139.829 149.935 138.43 148.243 137.512C146.551 136.594 144.625 136.199 142.707 136.375C140.142 136.612 137.776 137.855 136.127 139.832C134.478 141.809 133.681 144.359 133.91 146.922Z" fill="#6B8C96"/>
<path d="M144.176 154.688C142.817 151.919 141.617 149.045 141.058 146.013C140.499 142.98 140.618 139.759 141.836 136.925C141.788 136.925 142.87 137.804 142.94 137.892C143.433 138.437 143.653 139.46 143.886 140.146C145.206 144.087 145.497 148.3 144.731 152.385C144.656 152.785 144.022 154.375 144.176 154.688Z" fill="#30211F"/>
<path d="M151.698 145.854C151.686 146.179 151.613 146.498 151.482 146.795C151.416 146.944 151.316 147.077 151.192 147.183C151.067 147.289 150.919 147.365 150.761 147.406C150.519 147.427 150.277 147.374 150.067 147.253C149.856 147.132 149.689 146.949 149.586 146.729C149.392 146.286 149.268 145.817 149.217 145.336C148.98 144.062 148.453 142.859 147.678 141.82C146.358 140.063 149.191 140.225 150.022 141.183C150.596 141.813 151.039 142.55 151.327 143.352C151.614 144.153 151.74 145.004 151.698 145.854Z" fill="white"/>
<path d="M146.274 140.045C146.085 140.084 145.889 140.082 145.7 140.037C145.512 139.992 145.335 139.906 145.184 139.786C144.881 139.548 144.623 139.257 144.423 138.929C144.313 138.757 144.207 138.529 144.335 138.371C144.385 138.318 144.447 138.279 144.515 138.256C144.885 138.131 145.281 138.101 145.665 138.17C146.049 138.238 146.41 138.402 146.714 138.647C146.818 138.755 146.891 138.889 146.925 139.035C146.96 139.181 146.954 139.334 146.909 139.476C146.864 139.619 146.781 139.748 146.67 139.848C146.558 139.948 146.422 140.016 146.274 140.045Z" fill="white"/>
<path d="M196.5 134.521C196 138.231 196.846 141.997 198.885 145.137C200.924 148.278 204.021 150.585 207.615 151.641C211.209 152.698 215.063 152.433 218.479 150.896C221.895 149.359 224.648 146.651 226.238 143.262C225.934 145.497 225.151 147.641 223.941 149.546C222.732 151.451 221.125 153.072 219.23 154.299C217.335 155.526 215.198 156.329 212.963 156.654C210.729 156.979 208.451 156.818 206.284 156.182C204.118 155.546 202.115 154.45 200.412 152.969C198.709 151.488 197.346 149.656 196.417 147.6C195.488 145.544 195.014 143.312 195.029 141.056C195.043 138.8 195.545 136.574 196.5 134.53V134.521Z" fill="#E9F1F4"/>
<path d="M194.943 143.099C195.223 146.184 196.412 149.117 198.36 151.527C200.308 153.937 202.928 155.715 205.887 156.638C208.847 157.56 212.014 157.585 214.988 156.709C217.962 155.833 220.609 154.096 222.595 151.717C224.58 149.338 225.815 146.424 226.143 143.344C226.471 140.263 225.878 137.155 224.438 134.412C222.998 131.668 220.776 129.413 218.053 127.932C215.331 126.45 212.229 125.808 209.141 126.088C207.091 126.273 205.098 126.861 203.274 127.816C201.451 128.771 199.834 130.076 198.516 131.656C197.198 133.235 196.203 135.059 195.59 137.022C194.977 138.986 194.757 141.051 194.943 143.099Z" fill="white"/>
<path d="M194.411 143.143C194.122 139.957 194.786 136.757 196.317 133.948C197.848 131.139 200.179 128.846 203.015 127.36C205.85 125.874 209.063 125.261 212.246 125.599C215.43 125.937 218.442 127.211 220.902 129.259C223.361 131.307 225.158 134.038 226.064 137.106C226.97 140.174 226.946 143.442 225.994 146.496C225.041 149.55 223.204 152.254 220.714 154.265C218.224 156.276 215.193 157.504 212.005 157.794C207.728 158.178 203.474 156.851 200.175 154.104C196.877 151.357 194.804 147.415 194.411 143.143ZM195.436 143.051C195.706 146.035 196.856 148.871 198.741 151.202C200.625 153.532 203.158 155.253 206.021 156.145C208.883 157.037 211.947 157.061 214.823 156.214C217.699 155.366 220.259 153.686 222.18 151.385C224.1 149.084 225.294 146.266 225.612 143.287C225.929 140.308 225.355 137.301 223.962 134.648C222.569 131.995 220.42 129.814 217.787 128.381C215.154 126.948 212.154 126.327 209.168 126.598C205.168 126.968 201.477 128.908 198.907 131.992C196.336 135.076 195.094 139.053 195.453 143.051H195.436Z" fill="#E0BA99"/>
<path d="M199.434 143.314C199.617 145.333 200.395 147.252 201.67 148.829C202.945 150.406 204.659 151.569 206.595 152.173C208.532 152.776 210.604 152.792 212.55 152.219C214.496 151.646 216.228 150.509 217.527 148.952C218.826 147.395 219.634 145.489 219.849 143.473C220.063 141.458 219.675 139.424 218.733 137.629C217.79 135.834 216.336 134.359 214.555 133.389C212.773 132.42 210.744 132 208.723 132.183C207.382 132.305 206.078 132.689 204.885 133.314C203.692 133.939 202.634 134.793 201.771 135.827C200.909 136.86 200.258 138.053 199.857 139.338C199.456 140.623 199.312 141.974 199.434 143.314Z" fill="#6B8C96"/>
<path d="M210.245 151.506C208.811 148.583 207.545 145.551 206.955 142.356C206.366 139.162 206.493 135.765 207.778 132.776C207.729 132.776 208.869 133.712 208.943 133.796C209.462 134.367 209.696 135.448 209.937 136.169C211.036 139.464 211.461 142.946 211.187 146.408C211.11 147.305 210.992 148.194 210.83 149.076C210.764 149.493 210.096 151.172 210.245 151.506Z" fill="#30211F"/>
<path d="M218.189 142.189C218.173 142.532 218.096 142.868 217.96 143.183C217.889 143.339 217.784 143.478 217.652 143.589C217.521 143.7 217.366 143.781 217.199 143.824C216.945 143.848 216.689 143.792 216.468 143.664C216.247 143.537 216.07 143.344 215.963 143.112C215.757 142.645 215.625 142.148 215.572 141.64C215.321 140.296 214.766 139.028 213.949 137.931C212.576 136.09 215.541 136.252 216.416 137.259C217.022 137.924 217.491 138.701 217.795 139.548C218.099 140.394 218.233 141.291 218.189 142.189Z" fill="white"/>
<path d="M212.467 136.068C212.266 136.106 212.061 136.101 211.863 136.053C211.665 136.006 211.479 135.916 211.319 135.791C210.998 135.541 210.727 135.234 210.518 134.886C210.399 134.71 210.289 134.446 210.426 134.301C210.477 134.245 210.542 134.202 210.615 134.178C211.248 133.923 212.423 134.064 212.92 134.591C213.03 134.704 213.109 134.845 213.146 134.999C213.184 135.152 213.179 135.313 213.132 135.464C213.086 135.615 213 135.751 212.883 135.857C212.765 135.964 212.622 136.036 212.467 136.068Z" fill="white"/>
<path d="M165.821 180.461C165.849 180.336 165.924 180.227 166.03 180.155C166.137 180.084 166.267 180.057 166.393 180.079C169.225 180.413 172.309 179.881 174.605 178.106C177.116 176.159 178.018 172.903 178.014 169.844C178.014 169.616 178.014 169.405 178.014 169.163L177.921 168.82C177.325 166.591 176.955 164.308 176.817 162.004C176.807 161.876 176.849 161.749 176.932 161.652C177.016 161.554 177.135 161.494 177.264 161.484C177.392 161.474 177.519 161.515 177.617 161.599C177.714 161.682 177.775 161.801 177.785 161.93C177.807 162.281 177.833 162.628 177.864 162.976C177.965 163.001 178.056 163.057 178.126 163.135C178.195 163.214 178.238 163.311 178.251 163.415C178.611 165.252 178.85 167.11 178.968 168.978C179.38 170.455 179.897 171.9 180.516 173.303C180.854 174.127 181.32 174.892 181.897 175.57C182.491 176.188 183.173 176.715 183.921 177.135C187.172 179.047 190.983 179.786 194.714 179.227C194.841 179.217 194.967 179.257 195.064 179.34C195.161 179.422 195.222 179.539 195.233 179.666C195.242 179.793 195.201 179.919 195.119 180.016C195.037 180.114 194.92 180.176 194.794 180.189C191.1 180.732 187.329 180.072 184.039 178.308C183.205 177.876 182.424 177.348 181.713 176.735C181.021 176.1 180.451 175.343 180.032 174.502C179.588 173.641 179.2 172.751 178.871 171.839C178.764 172.737 178.563 173.62 178.273 174.476C177.746 176.052 176.813 177.461 175.568 178.563C174.395 179.559 173.012 180.276 171.521 180.659C169.801 181.112 168.009 181.231 166.243 181.011C166.115 180.993 165.998 180.926 165.919 180.823C165.84 180.72 165.805 180.59 165.821 180.461Z" fill="#593E39"/>
<path d="M183.059 151.541C183.537 151.59 184 151.742 184.414 151.986C184.829 152.231 185.185 152.561 185.46 152.956C185.793 153.607 185.906 154.349 185.781 155.07C185.509 157.311 184.092 159.249 182.522 160.871C180.952 162.492 179.166 163.947 177.846 165.766C175.486 164.372 173.267 162.753 171.218 160.932C170.315 160.193 169.549 159.3 168.957 158.295C168.416 157.271 168.003 155.742 168.469 154.683C168.979 153.51 171.706 151 174.719 152.156C175.726 152.543 176.676 152.859 177.358 153.677C178.603 152.02 181.022 151.207 183.059 151.541Z" fill="#E5CAC6"/>
<path d="M295.632 297.571C296.327 300.516 297.286 303.451 299.01 305.921C300.734 308.391 303.316 310.417 306.303 310.913C311.968 311.854 317.167 307.2 319.643 302.027C322.533 296.005 323.01 289.107 320.976 282.745C318.943 276.383 314.553 271.037 308.704 267.803C291.102 258.082 293.556 288.756 295.632 297.571Z" fill="#D8D8D8"/>
<path d="M301.016 228.885C295.865 237.502 294.374 247.566 294.458 257.374C294.515 264.551 295.377 271.767 297.748 278.609C300.558 286.708 305.397 294.073 309.822 301.553C315.979 311.985 321.473 322.928 323.835 334.582C326.197 346.236 325.225 358.752 319.058 369.189C318.011 370.947 316.78 372.819 316.96 374.827C317.141 376.835 318.852 377.903 321.192 376.633C320.158 377.952 320.395 379.147 321.328 380.013C323.571 381.199 325.093 380.452 326.496 378.488C326.179 379.705 326.003 381.327 326.967 381.7C328.691 382.241 330.217 380.931 331.572 379.824C336.85 375.504 338.944 371.949 341.605 366.557C349.255 351.069 355.867 335.09 361.398 318.727C366.396 304.034 370.381 289.016 373.326 273.779C375.75 261.075 377.258 247.557 371.791 235.666C360.003 210.059 316.688 202.68 301.016 228.885Z" fill="#E8E8E8"/>
<path d="M235.136 296.301C236.113 300.716 237.088 305.131 238.061 309.546C238.752 312.671 239.425 316.037 238.158 318.977C235.959 324.04 224.839 325.916 227.69 318.296C229.009 314.811 231.45 311.818 232.752 308.263C234.16 304.423 234.964 300.388 235.136 296.301Z" fill="#D8D8D8"/>
<path d="M178.423 283.293C178.55 288.87 182.381 294.042 185.636 299.114C200.749 322.677 204.549 351.633 190.598 374.146C189.889 375.289 189.115 376.576 189.595 377.864C190.074 379.151 192.559 379.881 193.228 378.716C192.48 379.775 193.109 380.716 194.068 381.261C196.439 382.17 197.881 381.006 198.528 379.288C197.855 380.294 198.172 382.047 199.689 382.069C202.464 382.43 207.448 372.814 210.245 367.673C219.293 351.062 228.389 334.323 233.262 316.367C234.995 309.99 236.187 303.363 235.022 296.741C234.424 293.191 233.097 289.804 231.122 286.794C229.148 283.783 226.569 281.215 223.551 279.25C217.833 275.585 210.632 274.153 203.7 272.821C193.531 270.853 178.168 272.127 178.423 283.293Z" fill="#E8E8E8"/>
<path d="M221.743 113.66L215.523 117.092C219.667 115.807 224.035 115.414 228.341 115.938C232.647 116.462 236.794 117.892 240.507 120.133C234.977 118.78 229.182 118.955 223.744 120.639C227.376 120.64 230.895 121.903 233.698 124.211C231.019 123.614 228.305 123.007 225.556 123.038C222.807 123.069 219.979 123.79 217.885 125.569C217.617 125.798 210.157 123.996 209.001 124.018C205.86 124.111 202.764 124.791 199.874 126.022C202.882 123.135 205.258 120.081 209.001 118.015C212.933 115.831 217.344 114.565 221.743 113.66Z" fill="#D8D8D8"/>
<path d="M117.289 130.957C121.874 128.33 127.047 126.894 132.331 126.782C131.077 125.478 129.416 124.638 127.621 124.4C130.504 124.349 133.38 124.716 136.158 125.49C132.791 122.075 128.477 119.745 123.772 118.802C127.126 118.402 130.527 118.718 133.75 119.729C136.974 120.739 139.945 122.421 142.47 124.664C143.468 125.543 145.368 128.452 145.843 129.7C145.404 128.505 141.52 129.463 137.786 130.008C135.885 130.285 134.57 132.069 132.692 132.39C127.577 133.277 122.087 128.681 117.289 130.957Z" fill="#D8D8D8"/>
</svg>
