<svg width="209" height="203" viewBox="0 0 209 203" fill="none" xmlns="http://www.w3.org/2000/svg">
<path d="M117.672 62.6208C115.985 66.0773 113.842 69.0794 111.243 71.6273C108.645 74.1751 105.53 75.9538 101.898 76.9634C98.267 77.973 94.6944 77.6203 91.1803 75.9053C86.8021 73.7685 83.6355 70.1723 81.6805 65.1167C79.7254 60.0611 78.9803 54.8648 79.4451 49.5279C79.9099 44.1911 81.1685 39.4199 83.2209 35.2146C84.9078 31.7581 87.0507 28.756 89.6494 26.2082C92.2481 23.6603 95.3631 21.8816 98.9944 20.872C102.626 19.8624 106.198 20.2151 109.712 21.9302C114.148 24.0951 117.329 27.6983 119.255 32.7398C121.182 37.7814 121.919 42.9562 121.469 48.2643C121.018 53.5723 119.752 58.3579 117.672 62.6208ZM67.7492 89.9344C65.5 94.543 62.3362 97.9563 58.2578 100.174C54.1795 102.392 49.9224 102.419 45.4866 100.254C41.1084 98.1172 37.8129 94.5294 35.6 89.4906C33.3871 84.4518 32.369 79.1936 32.5458 73.7162C32.7225 68.2387 33.8512 63.3685 35.9317 59.1056C38.181 54.4969 41.3518 51.0692 45.4442 48.8224C49.5366 46.5756 53.8007 46.5347 58.2365 48.6996C62.6147 50.8363 65.9102 54.4241 68.1231 59.4629C70.336 64.5017 71.3471 69.7743 71.1563 75.2805C70.9655 80.7868 69.8298 85.6714 67.7492 89.9344ZM102.934 104.218C109.732 107.535 115.706 113.928 120.857 123.397C126.008 132.865 129.273 142.911 130.65 153.534C132.028 164.157 131.1 172.781 127.867 179.406C126.574 182.056 125.009 184.02 123.172 185.299C121.335 186.578 119.305 187.193 117.083 187.143C114.861 187.092 112.722 186.762 110.666 186.151C108.61 185.54 106.344 184.63 103.867 183.421C99.9495 181.509 95.1813 177.577 89.5624 171.625C83.9435 165.672 79.3194 161.811 75.6901 160.039C71.888 158.184 65.7176 156.759 57.1791 155.766C48.6406 154.773 42.2399 153.237 37.9769 151.156C27.4347 146.011 24.216 139.233 28.3209 130.822C30.7388 125.868 35.0439 121.139 41.2361 116.636C47.4284 112.133 54.1526 108.549 61.4089 105.885C68.6652 103.221 76.1184 101.651 83.7684 101.176C91.4184 100.702 97.807 101.715 102.934 104.218ZM132.485 96.0641C128.971 94.3491 126.495 91.7497 125.057 88.2659C123.618 84.7821 123.104 81.2321 123.514 77.6159C123.923 73.9997 124.972 70.4633 126.659 67.0069C128.739 62.7439 131.733 58.8018 135.64 55.1807C139.547 51.5596 144.081 48.9573 149.24 47.374C154.4 45.7907 159.197 46.0814 163.633 48.2463C167.147 49.9614 169.623 52.5608 171.062 56.0446C172.5 59.5284 173.014 63.0784 172.605 66.6946C172.195 70.3108 171.147 73.8472 169.46 77.3036C167.407 81.509 164.42 85.4366 160.499 89.0866C156.578 92.7365 152.023 95.3461 146.835 96.9154C141.646 98.4847 136.863 98.2009 132.485 96.0641ZM174.201 105.296C178.637 107.461 181.228 110.848 181.975 115.456C182.721 120.065 181.97 124.673 179.721 129.282C177.64 133.545 174.495 137.431 170.286 140.941C166.077 144.45 161.305 146.882 155.971 148.238C150.638 149.594 145.782 149.203 141.404 147.066C136.968 144.901 134.369 141.529 133.609 136.949C132.848 132.37 133.592 127.776 135.842 123.167C137.922 118.904 141.074 115.003 145.297 111.465C149.521 107.927 154.299 105.48 159.633 104.125C164.967 102.769 169.823 103.159 174.201 105.296Z" fill="#EA3659" fill-opacity="0.5"/>
</svg>
