<svg width="1074" height="339" viewBox="0 0 1074 339" fill="none" xmlns="http://www.w3.org/2000/svg">
<path d="M247 209.5L237.889 213.621L238.358 214.658L239.047 215.562L247 209.5ZM1062.62 178.962C1068.13 179.445 1072.98 175.377 1073.46 169.875C1073.94 164.374 1069.88 159.522 1064.38 159.038L1062.62 178.962ZM0.388057 20.9925C47.5859 19.1595 165.466 53.5086 237.889 213.621L256.111 205.379C180.534 38.2914 55.4141 -1.15954 -0.388057 1.00754L0.388057 20.9925ZM239.047 215.562C261.836 245.457 285.869 281.675 329.299 306.84C373.045 332.188 435.265 345.836 534.096 334.94L531.904 315.06C435.735 325.664 378.205 312.062 339.326 289.535C300.131 266.825 278.664 234.543 254.953 203.438L239.047 215.562ZM534.096 334.94C633.581 323.971 719.555 279.799 802.971 241.657C886.971 203.248 968.722 170.712 1062.62 178.962L1064.38 159.038C964.778 150.288 878.779 185.002 794.654 223.468C709.945 262.201 627.419 304.529 531.904 315.06L534.096 334.94Z" fill="#EA3659" fill-opacity="0.8"/>
</svg>
