<svg width="372" height="68" viewBox="0 0 372 68" fill="none" xmlns="http://www.w3.org/2000/svg">
<path d="M34 0L43.9917 20.2476L66.3359 23.4934L50.1669 39.2529L53.9847 61.5066L34 50.9988L14.0153 61.5066L17.8331 39.2529L1.66408 23.4934L24.0083 20.2476L34 0Z" fill="#FFCC48"/>
<path d="M110 0L119.992 20.2476L142.336 23.4934L126.167 39.2529L129.985 61.5066L110 50.9988L90.0153 61.5066L93.8331 39.2529L77.6641 23.4934L100.008 20.2476L110 0Z" fill="#FFCC48"/>
<path d="M186 0L195.992 20.2476L218.336 23.4934L202.167 39.2529L205.985 61.5066L186 50.9988L166.015 61.5066L169.833 39.2529L153.664 23.4934L176.008 20.2476L186 0Z" fill="#FFCC48"/>
<path d="M262 0L271.992 20.2476L294.336 23.4934L278.167 39.2529L281.985 61.5066L262 50.9988L242.015 61.5066L245.833 39.2529L229.664 23.4934L252.008 20.2476L262 0Z" fill="#FFCC48"/>
<path d="M338 0L347.992 20.2476L370.336 23.4934L354.167 39.2529L357.985 61.5066L338 50.9988L318.015 61.5066L321.833 39.2529L305.664 23.4934L328.008 20.2476L338 0Z" fill="#CCD3E1"/>
</svg>
