<svg width="25" height="25" viewBox="0 0 25 25" fill="none" xmlns="http://www.w3.org/2000/svg">
<g clip-path="url(#clip0_1091_1184)">
<path d="M9.82626 9.68494C9.24501 9.68494 8.77191 10.1628 8.77191 10.7529C8.77191 11.3428 9.24496 11.8212 9.82626 11.8212C10.4083 11.8212 10.8812 11.3428 10.8812 10.7529C10.8812 10.1628 10.4083 9.68494 9.82626 9.68494Z" fill="black"/>
<path d="M15.1658 9.67664C14.5789 9.67664 14.1028 10.1585 14.1028 10.753C14.1028 11.3474 14.5789 11.8293 15.1658 11.8293C15.752 11.8293 16.228 11.3474 16.228 10.753C16.228 10.1584 15.7519 9.67664 15.1658 9.67664Z" fill="black"/>
<path d="M22.7581 18.5591C23.4033 17.2687 23.7372 15.8093 23.7401 14.2221L25 13.9295L24.6366 12.3644L23.6271 12.5989C23.5064 11.7342 23.2908 10.8755 22.9864 10.042C23.884 7.50388 23.9815 4.56344 23.254 1.70401L23.052 0.910156L22.2623 1.12749C21.9215 1.22134 18.9623 2.0647 17.5531 3.4273C17.3452 3.3067 17.1342 3.19229 16.9196 3.0858C15.5062 2.38457 14.0193 2.02906 12.4999 2.02906C10.9805 2.02906 9.49357 2.38457 8.08029 3.0858C7.86564 3.19229 7.6546 3.30665 7.44669 3.42735C6.03751 2.06475 3.07842 1.22129 2.73755 1.12754L1.94781 0.910205L1.74585 1.70405C1.01836 4.56344 1.11587 7.50388 2.01343 10.0421C1.70909 10.8755 1.49346 11.7342 1.37271 12.5989L0.363526 12.3645L0 13.9295L1.25972 14.222C1.26265 15.8093 1.59649 17.2687 2.24175 18.5591L0 19.0797L0.363428 20.6448L3.14498 19.9989C3.56534 20.5443 4.05377 21.0482 4.6087 21.5058C6.6297 23.1722 9.43225 24.0899 12.4999 24.0899C15.5676 24.0899 18.3701 23.1721 20.3912 21.5058C20.9461 21.0482 21.4345 20.5443 21.8549 19.9989L24.6366 20.6448L25 19.0797L22.7581 18.5591ZM3.11793 2.9293C4.03443 3.24351 5.30826 3.76309 6.07653 4.363C5.52526 4.80084 5.00465 5.29401 4.51891 5.84132C3.97501 6.45412 3.49273 7.11642 3.07618 7.8134C2.78677 6.25866 2.79869 4.59151 3.11793 2.9293ZM11.4518 17.0577C11.0361 16.6422 10.8186 16.2061 10.8186 15.9901C10.8186 15.7972 10.8517 15.7833 10.9746 15.7315C11.3249 15.5841 12.013 15.5671 12.5 15.5671C12.9871 15.5671 13.6751 15.5842 14.0254 15.7315C14.1483 15.7832 14.1814 15.7972 14.1814 15.9901C14.1814 16.2061 13.9639 16.6422 13.5482 17.0577C13.1395 17.4662 12.7031 17.6866 12.5 17.6866C12.2969 17.6866 11.8605 17.4661 11.4518 17.0577ZM21.1335 18.1819L18.0374 17.4629L17.6741 19.028L20.0916 19.5894C19.8682 19.8268 19.6276 20.0528 19.3689 20.2661C17.8091 21.5523 15.6781 22.3182 13.3033 22.4591V19.1329C13.9341 18.8895 14.4478 18.4301 14.684 18.1941C15.0159 17.8623 15.7881 16.9833 15.7881 15.9901C15.7881 15.1775 15.3833 14.5598 14.6485 14.2506C14.1586 14.0445 13.5361 13.9604 12.5 13.9604C11.4638 13.9604 10.8413 14.0445 10.3514 14.2506C9.61657 14.5597 9.21183 15.1775 9.21183 15.9901C9.21183 16.9833 9.98396 17.8623 10.3159 18.1941C10.5521 18.4301 11.0658 18.8895 11.6966 19.1329V22.4591C9.32185 22.3182 7.19074 21.5523 5.63082 20.2661C5.37218 20.0528 5.13165 19.8268 4.90821 19.5894L7.32599 19.028L6.96251 17.4629L3.86622 18.1819C3.26641 17.1267 2.93072 15.9196 2.87496 14.5972L6.96251 15.5463L7.32594 13.9812L2.9441 12.9637C3.21651 10.7808 4.19478 8.62697 5.72057 6.90778C7.59328 4.79781 10.0008 3.63575 12.4999 3.63575C14.9989 3.63575 17.4065 4.79781 19.2792 6.90778C20.805 8.62697 21.7833 10.7809 22.0557 12.9637L17.6741 13.9812L18.0374 15.5464L22.1247 14.5972C22.069 15.9196 21.7333 17.1267 21.1335 18.1819ZM21.9236 7.8133C21.5071 7.11637 21.0247 6.45407 20.4809 5.84122C19.9953 5.29391 19.4746 4.80079 18.9234 4.36305C19.6908 3.76456 20.9651 3.24459 21.882 2.92979C22.2012 4.59181 22.213 6.25876 21.9236 7.8133Z" fill="black"/>
</g>
<defs>
<clipPath id="clip0_1091_1184">
<rect width="25" height="25" fill="white"/>
</clipPath>
</defs>
</svg>
