<svg width="52" height="52" viewBox="0 0 52 52" fill="none" xmlns="http://www.w3.org/2000/svg">
<path d="M24.46 23.69C24.46 24.0967 24.2992 24.4869 24.0125 24.7754C23.7259 25.064 23.3367 25.2274 22.93 25.23H19.85V36.68C19.8576 37.0543 19.7336 37.4194 19.4998 37.7118C19.2659 38.0041 18.9369 38.2052 18.57 38.28C18.369 38.3143 18.1631 38.3082 17.9644 38.2622C17.7656 38.2163 17.578 38.1313 17.4124 38.0122C17.2468 37.8931 17.1065 37.7423 16.9997 37.5685C16.8928 37.3948 16.8216 37.2015 16.79 37C16.7851 36.9101 16.7851 36.8199 16.79 36.73V32.15H13.7V36.76C13.7 37.1684 13.5378 37.5602 13.249 37.849C12.9602 38.1378 12.5685 38.3 12.16 38.3H11.9C11.5323 38.227 11.2022 38.0265 10.9679 37.7337C10.7337 37.4409 10.6105 37.0748 10.62 36.7V25.23H7.55004C7.16433 25.1989 6.80448 25.0236 6.5421 24.7392C6.27972 24.4548 6.13403 24.082 6.13403 23.695C6.13403 23.308 6.27972 22.9353 6.5421 22.6508C6.80448 22.3664 7.16433 22.1912 7.55004 22.16H12.69C11.9299 21.6567 11.3361 20.9392 10.9837 20.0984C10.6312 19.2576 10.536 18.3311 10.7101 17.4362C10.8842 16.5413 11.3197 15.7181 11.9616 15.0707C12.6034 14.4232 13.4229 13.9807 14.3163 13.7989C15.2097 13.6171 16.1369 13.7044 16.9807 14.0495C17.8245 14.3947 18.547 14.9823 19.0569 15.7381C19.5668 16.4939 19.8411 17.3839 19.8453 18.2956C19.8494 19.2072 19.5831 20.0997 19.08 20.86C18.7424 21.3761 18.3035 21.8184 17.79 22.16H22.93C23.3358 22.16 23.725 22.3212 24.0119 22.6081C24.2988 22.8951 24.46 23.2842 24.46 23.69V23.69ZM44.46 22.16H39.31C40.0702 21.6567 40.664 20.9392 41.0164 20.0984C41.3688 19.2576 41.464 18.3311 41.29 17.4362C41.1159 16.5413 40.6804 15.7181 40.0385 15.0707C39.3966 14.4232 38.5772 13.9807 37.6838 13.7989C36.7904 13.6171 35.8632 13.7044 35.0194 14.0495C34.1756 14.3947 33.453 14.9823 32.9431 15.7381C32.4333 16.4939 32.1589 17.3839 32.1548 18.2956C32.1507 19.2072 32.417 20.0997 32.92 20.86C33.2577 21.3761 33.6965 21.8184 34.21 22.16H29.07C28.6843 22.1912 28.3245 22.3664 28.0621 22.6508C27.7997 22.9353 27.654 23.308 27.654 23.695C27.654 24.082 27.7997 24.4548 28.0621 24.7392C28.3245 25.0236 28.6843 25.1989 29.07 25.23H32.15L29.41 33.44C29.3755 33.5378 29.3608 33.6415 29.3669 33.745C29.3729 33.8485 29.3995 33.9498 29.4451 34.0429C29.4907 34.136 29.5545 34.2191 29.6326 34.2873C29.7107 34.3554 29.8016 34.4074 29.9 34.44C29.9797 34.4497 30.0603 34.4497 30.14 34.44H32.14V36.66C32.1305 37.0348 32.2537 37.4009 32.4879 37.6937C32.7222 37.9865 33.0523 38.187 33.42 38.26C33.6204 38.2959 33.8259 38.2917 34.0247 38.2476C34.2234 38.2036 34.4114 38.1206 34.5779 38.0034C34.7443 37.8862 34.8859 37.7372 34.9944 37.565C35.1029 37.3928 35.1762 37.2007 35.21 37C35.215 36.9101 35.215 36.8199 35.21 36.73V34.43H38.3V36.73C38.3 37.1385 38.4623 37.5302 38.7511 37.819C39.0399 38.1078 39.4316 38.27 39.84 38.27H40.1C40.4678 38.197 40.7979 37.9965 41.0321 37.7037C41.2663 37.4109 41.3896 37.0448 41.38 36.67V34.46H43.38C43.5835 34.4574 43.7778 34.3755 43.9216 34.2316C44.0655 34.0878 44.1474 33.8934 44.15 33.69C44.1644 33.6073 44.1644 33.5227 44.15 33.44L41.41 25.23H44.48C44.8658 25.1989 45.2256 25.0236 45.488 24.7392C45.7504 24.4548 45.896 24.082 45.896 23.695C45.896 23.308 45.7504 22.9353 45.488 22.6508C45.2256 22.3664 44.8658 22.1912 44.48 22.16H44.46Z" fill="black"/>
</svg>
