<svg width="52" height="52" viewBox="0 0 52 52" fill="none" xmlns="http://www.w3.org/2000/svg">
<path d="M25.29 21.07C23.4889 21.0451 21.7103 21.4724 20.117 22.3127C18.5237 23.153 17.1666 24.3795 16.17 25.88V21.07C16.17 19.6431 15.6032 18.2747 14.5942 17.2657C13.5853 16.2568 12.2169 15.69 10.79 15.69C10.3153 15.69 9.85997 15.8786 9.52428 16.2143C9.18859 16.5499 9 17.0052 9 17.48C9 17.9547 9.18859 18.41 9.52428 18.7457C9.85997 19.0814 10.3153 19.27 10.79 19.27C11.2658 19.2752 11.7206 19.4665 12.057 19.8029C12.3935 20.1394 12.5848 20.5942 12.59 21.07V35.41C12.5887 35.8809 12.6803 36.3476 12.8596 36.7831C13.039 37.2186 13.3025 37.6144 13.635 37.9479C13.9676 38.2814 14.3627 38.546 14.7977 38.7265C15.2327 38.907 15.699 39 16.17 39H26C26.2387 39 26.4676 38.9052 26.6364 38.7364C26.8052 38.5676 26.9 38.3387 26.9 38.1V37.2C26.9 36.7252 26.7114 36.2699 26.3757 35.9343C26.04 35.5986 25.5847 35.41 25.11 35.41H23.31L30.52 30V38.1C30.52 38.3387 30.6148 38.5676 30.7836 38.7364C30.9524 38.9052 31.1813 39 31.42 39H33.21C33.4487 39 33.6776 38.9052 33.8464 38.7364C34.0152 38.5676 34.11 38.3387 34.11 38.1V26.55C33.5273 26.7134 32.9252 26.7975 32.32 26.8C30.6716 26.7921 29.0761 26.2173 27.8014 25.1721C26.5268 24.1269 25.6506 22.6749 25.32 21.06L25.29 21.07ZM34.11 15.69H30.52L26.93 12.1V19.63C26.9898 21.018 27.5833 22.3293 28.5867 23.2904C29.59 24.2514 30.9257 24.7879 32.315 24.7879C33.7043 24.7879 35.04 24.2514 36.0433 23.2904C37.0467 22.3293 37.6402 21.018 37.7 19.63V12.1L34.11 15.69ZM30.11 20.17C29.932 20.17 29.758 20.1172 29.61 20.0183C29.462 19.9194 29.3466 19.7788 29.2785 19.6144C29.2104 19.4499 29.1926 19.269 29.2273 19.0944C29.262 18.9198 29.3477 18.7594 29.4736 18.6336C29.5995 18.5077 29.7598 18.422 29.9344 18.3873C30.109 18.3525 30.29 18.3704 30.4544 18.4385C30.6189 18.5066 30.7594 18.622 30.8583 18.77C30.9572 18.918 31.01 19.092 31.01 19.27V19.27C31.01 19.5087 30.9152 19.7376 30.7464 19.9064C30.5776 20.0752 30.3487 20.17 30.11 20.17V20.17ZM34.6 20.17C34.422 20.17 34.248 20.1172 34.1 20.0183C33.952 19.9194 33.8366 19.7788 33.7685 19.6144C33.7004 19.4499 33.6826 19.269 33.7173 19.0944C33.752 18.9198 33.8377 18.7594 33.9636 18.6336C34.0895 18.5077 34.2498 18.422 34.4244 18.3873C34.599 18.3525 34.78 18.3704 34.9444 18.4385C35.1089 18.5066 35.2494 18.622 35.3483 18.77C35.4472 18.918 35.5 19.092 35.5 19.27C35.5 19.5087 35.4052 19.7376 35.2364 19.9064C35.0676 20.0752 34.8387 20.17 34.6 20.17V20.17Z" fill="black"/>
</svg>
