<svg width="52" height="52" viewBox="0 0 52 52" fill="none" xmlns="http://www.w3.org/2000/svg">
<path fill-rule="evenodd" clip-rule="evenodd" d="M26.89 6.09997C27.1099 6.79791 27.3703 7.48241 27.67 8.14997C28.07 8.86997 28.95 8.66997 29.67 8.90997C30.93 9.30997 30.86 9.79997 32.41 9.85997C33.4127 9.86208 34.4143 9.92218 35.41 10.04C36.54 10.26 36.79 11.16 36.27 12.09C35.534 13.1216 34.4802 13.8838 33.27 14.26C32.21 14.56 30.57 14.37 30.59 15.85C30.61 17.33 31.65 18.74 31.84 20.3C32.0691 22.7562 31.67 25.2304 30.68 27.49C29.95 29.38 29.07 39.76 30.75 40.81C31.0175 40.9495 31.25 41.1478 31.43 41.39C31.5402 41.607 31.5984 41.8466 31.6 42.09C31.6 42.25 31.6 42.28 30.89 42.29C30.18 42.3 28.89 42.29 28.19 42.22C27.49 42.15 27.42 41.98 27.3 41.3C26.89 38.89 26.6 36.44 26.18 34.02C26.04 33.19 26.03 33.23 25.72 33.49C25.41 33.75 23.72 34.49 23.59 34.66C23.46 34.83 23.54 35.16 23.49 35.54C23.24 37.21 20.59 39.2 20.25 40.14C20.03 40.77 24.25 39.52 24.08 42C24.08 42.24 24.08 42.33 22.39 42.38C20.7 42.43 17.48 42.38 15.67 42.29C13.86 42.2 13.52 41.86 13.2 41.36C11.56 38.76 11.67 33.89 12.2 31.02C12.93 27.02 16.34 24.28 19.02 21.49C23.43 16.91 23.49 15.25 24.58 9.31997C24.78 8.26997 25.52 2.62997 26.87 6.09997H26.89Z" fill="black"/>
</svg>
