<svg width="52" height="52" viewBox="0 0 52 52" fill="none" xmlns="http://www.w3.org/2000/svg">
<g clip-path="url(#clip0_22_2)">
<path fill-rule="evenodd" clip-rule="evenodd" d="M26.89 6.09997C27.1099 6.79791 27.3703 7.48241 27.67 8.14997C28.07 8.86997 28.95 8.66997 29.67 8.90997C30.93 9.30997 30.86 9.79997 32.41 9.85997C33.4127 9.86208 34.4143 9.92218 35.41 10.04C36.54 10.26 36.79 11.16 36.27 12.09C35.534 13.1216 34.4802 13.8838 33.27 14.26C32.21 14.56 30.57 14.37 30.59 15.85C30.61 17.33 31.65 18.74 31.84 20.3C32.0691 22.7562 31.67 25.2304 30.68 27.49C29.95 29.38 29.07 39.76 30.75 40.81C31.0175 40.9495 31.25 41.1478 31.43 41.39C31.5402 41.607 31.5984 41.8466 31.6 42.09C31.6 42.25 31.6 42.28 30.89 42.29C30.18 42.3 28.89 42.29 28.19 42.22C27.49 42.15 27.42 41.98 27.3 41.3C26.89 38.89 26.6 36.44 26.18 34.02C26.04 33.19 26.03 33.23 25.72 33.49C25.41 33.75 23.72 34.49 23.59 34.66C23.46 34.83 23.54 35.16 23.49 35.54C23.24 37.21 20.59 39.2 20.25 40.14C20.03 40.77 24.25 39.52 24.08 42C24.08 42.24 24.08 42.33 22.39 42.38C20.7 42.43 17.48 42.38 15.67 42.29C13.86 42.2 13.52 41.86 13.2 41.36C11.56 38.76 11.67 33.89 12.2 31.02C12.93 27.02 16.34 24.28 19.02 21.49C23.43 16.91 23.49 15.25 24.58 9.31997C24.78 8.26997 25.52 2.62997 26.87 6.09997H26.89Z" fill="black"/>
<path d="M26 0C20.8577 0 15.8309 1.52487 11.5552 4.38179C7.27951 7.23871 3.94702 11.2994 1.97914 16.0502C0.0112654 20.8011 -0.503621 26.0288 0.499594 31.0723C1.50281 36.1159 3.97907 40.7486 7.61524 44.3848C11.2514 48.0209 15.8842 50.4972 20.9277 51.5004C25.9712 52.5036 31.1989 51.9887 35.9498 50.0209C40.7007 48.053 44.7613 44.7205 47.6182 40.4448C50.4751 36.1691 52 31.1423 52 26C52 19.1044 49.2607 12.4912 44.3848 7.61522C39.5088 2.73928 32.8956 0 26 0V0ZM3.00001 26C3.00416 21.5861 4.27831 17.2666 6.67039 13.557C9.06247 9.84749 12.4714 6.90461 16.4904 5.07962C20.5094 3.25464 24.9686 2.62464 29.3358 3.26482C33.7031 3.905 37.7939 5.78832 41.12 8.69L8.69001 41.12C5.01712 36.94 2.99414 31.5644 3.00001 26V26ZM26 49C20.4044 49.0027 15.0012 46.9574 10.81 43.25L43.25 10.81C46.1704 14.1304 48.0718 18.2222 48.7263 22.5954C49.3809 26.9687 48.7609 31.4379 46.9406 35.4678C45.1204 39.4977 42.177 42.9175 38.463 45.3175C34.749 47.7176 30.422 48.9961 26 49V49Z" fill="#BF0000"/>
</g>
<defs>
<clipPath id="clip0_22_2">
<rect width="52" height="52" fill="white"/>
</clipPath>
</defs>
</svg>
