<svg width="20" height="20" viewBox="0 0 20 20" fill="none" xmlns="http://www.w3.org/2000/svg">
<g clip-path="url(#clip0_105_182)">
<path d="M16.1667 2.53001C15.9619 2.0376 15.6643 1.58922 15.29 1.20934C14.92 0.833018 14.4802 0.532315 13.9953 0.324009C13.3122 0.0315311 12.5614 -0.0654977 11.8264 0.0437386C11.0914 0.152975 10.4012 0.464184 9.83266 0.942676C9.05757 0.289532 8.06397 -0.046027 7.05159 0.00344219C6.0392 0.0529114 5.08306 0.483742 4.37533 1.20934C4.00065 1.58863 3.70295 2.03688 3.49866 2.52934C3.28418 3.04479 3.17427 3.59772 3.17533 4.15601C3.17533 4.68668 3.28 5.24001 3.48866 5.80268C3.662 6.27401 3.912 6.76201 4.23066 7.25468C4.73666 8.03468 5.43133 8.84801 6.29466 9.67334C7.72466 11.04 9.14133 11.9847 9.20133 12.0227L9.566 12.2653C9.728 12.372 9.936 12.372 10.098 12.2653L10.4633 12.0227C10.5233 11.9827 11.938 11.04 13.37 9.67334C14.2327 8.84868 14.928 8.03468 15.4333 7.25468C15.7527 6.76134 16.0033 6.27401 16.176 5.80334C16.384 5.24001 16.4893 4.68668 16.4893 4.15534C16.4912 3.59747 16.3815 3.04486 16.1667 2.53001Z" fill="white"/>
<path d="M4.85933 11.6107C4.41933 11.624 3.90067 11.7627 3.178 12.054C1.98667 12.532 0 13.5227 0 13.5227L2.39 19.0933L3.52 18.3733C4.19333 17.9193 4.84 17.9333 5.72667 18.3733C6.72067 18.8647 8.09667 19.3533 9.062 19.6753C10.5227 20.164 10.7793 20.0953 11.7413 19.5087C12.5613 19.0107 18.38 15.39 18.9907 14.936C19.9427 14.226 20.238 13.592 19.8047 12.996C19.4767 12.546 18.728 12.172 17.2307 13.1073C17.3687 12.452 16.896 12.054 16.3113 12.054C15.796 12.054 15.1887 12.1787 14.7093 12.6913C14.0193 11.7353 13.3073 11.87 11.9247 12.7747C11.3993 13.1213 10.93 13.4013 10.5853 13.606C10.4933 13.6613 10.4247 13.7027 10.3487 13.7447C10.4833 13.776 10.618 13.8 10.7687 13.8C12.7067 13.8 14.2367 13.8 14.2367 15.5733C14.2367 16.9353 12.746 17.358 11.9513 17.3753H9.19333C7.71267 17.3753 6.27733 15.712 6.27733 15.712C6.27733 15.712 7.97533 16.4607 9.19333 16.4607H11.9247C11.9313 16.4607 13.396 16.398 13.396 15.574C13.396 14.8187 12.6667 14.6873 11.5047 14.6873C9.60667 14.6873 8.668 13.772 8.668 13.772C8.668 13.772 7.20333 12.6287 6.75067 12.3313C6.08067 11.8873 5.59467 11.5893 4.85933 11.6107Z" fill="white"/>
</g>
<defs>
<clipPath id="clip0_105_182">
<rect width="20" height="20" fill="white"/>
</clipPath>
</defs>
</svg>
