<svg width="24" height="24" viewBox="0 0 24 24" fill="none" xmlns="http://www.w3.org/2000/svg">
<path fill-rule="evenodd" clip-rule="evenodd" d="M15 5.25C15.4142 5.25 15.75 4.91421 15.75 4.5C15.75 4.08579 15.4142 3.75 15 3.75H9C8.58579 3.75 8.25 4.08579 8.25 4.5C8.25 4.91421 8.58579 5.25 9 5.25L15 5.25ZM20.75 7C20.75 7.41421 20.4142 7.75 20 7.75H19.6987L18.8814 19.1954L18.8814 19.1956C18.7783 20.6348 17.581 21.75 16.1383 21.75H7.85831C6.41827 21.75 5.22257 20.6388 5.11539 19.2028L5.11535 19.2022L4.26965 7.75H4C3.58579 7.75 3.25 7.41421 3.25 7C3.25 6.58579 3.58579 6.25 4 6.25L4.96631 6.25H19.0003L19.0009 6.25H20C20.4142 6.25 20.75 6.58579 20.75 7ZM5.77373 7.75H18.1948L17.3852 19.0884L17.3852 19.0886C17.3382 19.7433 16.7936 20.25 16.1383 20.25H7.85831C7.20444 20.25 6.6602 19.7453 6.61125 19.0915L6.61123 19.0912L5.77373 7.75ZM14.75 12C14.75 11.5858 14.4142 11.25 14 11.25C13.5858 11.25 13.25 11.5858 13.25 12V16C13.25 16.4142 13.5858 16.75 14 16.75C14.4142 16.75 14.75 16.4142 14.75 16V12ZM10.5 11.25C10.9142 11.25 11.25 11.5858 11.25 12V16C11.25 16.4142 10.9142 16.75 10.5 16.75C10.0858 16.75 9.75 16.4142 9.75 16V12C9.75 11.5858 10.0858 11.25 10.5 11.25Z" fill="black"/>
</svg>
