<svg width="24" height="24" viewBox="0 0 24 24" fill="none" xmlns="http://www.w3.org/2000/svg">
<path fill-rule="evenodd" clip-rule="evenodd" d="M16.2533 2.2764C17.4628 2.12735 18.6993 2.60149 19.9707 3.75424L19.9721 3.75552C21.2442 4.91474 21.8291 6.09537 21.7414 7.30461C21.6568 8.47089 20.9561 9.45428 20.1616 10.263L20.1614 10.2633L11.4406 19.158C11.1982 19.4124 10.8715 19.6281 10.5615 19.7878C10.247 19.9499 9.88593 20.087 9.55022 20.1445L9.54539 20.1453L9.54539 20.1453L6.12432 20.7084L6.12324 20.7086L6.12321 20.7086C5.31618 20.8424 4.54261 20.6491 3.98763 20.142C3.42918 19.6317 3.17563 18.879 3.26892 18.07L3.2692 18.0676L3.66243 14.7495L3.6643 14.7349C3.71031 14.4024 3.83817 14.0434 3.98852 13.7327C4.13865 13.4225 4.34262 13.0955 4.58225 12.8497L4.58375 12.8482L13.3092 3.94866L13.3098 3.94812C14.1089 3.1347 15.079 2.42109 16.2533 2.2764ZM14.3801 4.99908L14.3798 4.99933L12.695 6.71777C12.717 6.77217 12.733 6.83005 12.7419 6.8907C13.0902 9.25663 14.8933 11.0212 17.0794 11.2542L17.0882 11.2552L19.0908 9.21259L19.0914 9.21206C19.806 8.48466 20.1998 7.82444 20.2453 7.19609C20.2878 6.61071 20.0386 5.84577 18.9626 4.86495C17.8962 3.89826 17.0763 3.68633 16.4367 3.76514C15.7618 3.8483 15.09 4.27648 14.3801 4.99908ZM5.65632 13.8968L11.4463 7.99132C12.0665 10.1884 13.723 11.9102 15.8373 12.531L10.3653 18.1121L10.3652 18.112L10.3561 18.1217C10.2695 18.2132 10.0991 18.3387 9.87453 18.4544C9.65342 18.5683 9.44154 18.6409 9.299 18.6657L9.29695 18.6661L5.8796 19.2285L5.87848 19.2287C5.45308 19.2994 5.16431 19.1853 4.99951 19.0347C4.83806 18.8872 4.7144 18.6314 4.75893 18.2428L4.75905 18.2418L5.15099 14.9345C5.16986 14.8059 5.23299 14.6046 5.33871 14.3861C5.44608 14.1643 5.56598 13.9897 5.65575 13.8974L5.65632 13.8968ZM8.46955 14.4696C8.17666 14.7625 8.17666 15.2374 8.46955 15.5303C8.76245 15.8232 9.23732 15.8232 9.53021 15.5303L11.5302 13.5303C11.8231 13.2374 11.8231 12.7625 11.5302 12.4696C11.2373 12.1767 10.7624 12.1767 10.4696 12.4696L8.46955 14.4696Z" fill="black"/>
</svg>
