<svg width="24" height="24" viewBox="0 0 24 24" fill="none" xmlns="http://www.w3.org/2000/svg">
<path fill-rule="evenodd" clip-rule="evenodd" d="M13.25 2.75H9C6.57397 2.75 5.07086 3.2398 4.15533 4.15533C3.2398 5.07086 2.75 6.57397 2.75 9V15C2.75 17.426 3.2398 18.9291 4.15533 19.8447C5.07086 20.7602 6.57397 21.25 9 21.25H15C17.426 21.25 18.9291 20.7602 19.8447 19.8447C20.7602 18.9291 21.25 17.426 21.25 15V10.75H18C16.4585 10.75 15.1921 10.5028 14.3447 9.65533C13.4972 8.80791 13.25 7.54155 13.25 6V2.75ZM22.5303 9.46967C22.5437 9.48308 22.5566 9.4969 22.5688 9.51112C22.6801 9.6405 22.7421 9.80184 22.7493 9.96741C22.7499 9.98018 22.7501 9.99297 22.75 10.0058M22.75 10.0058V15C22.75 17.574 22.2398 19.5709 20.9053 20.9053C19.5709 22.2398 17.574 22.75 15 22.75H9C6.42603 22.75 4.42914 22.2398 3.09467 20.9053C1.7602 19.5709 1.25 17.574 1.25 15V9C1.25 6.42603 1.7602 4.42914 3.09467 3.09467C4.42914 1.7602 6.42603 1.25 9 1.25H13.9941H14C14.0115 1.25 14.023 1.25026 14.0343 1.25077M14.5307 1.47004L22.5303 9.46967ZM14.75 6V3.81066L20.1893 9.25H18C16.5415 9.25 15.8079 8.99725 15.4053 8.59467C15.0028 8.19209 14.75 7.45845 14.75 6ZM13.7824 11.0608C13.1299 10.4692 12.4378 10.1767 11.7177 10.2654C11.033 10.3498 10.4975 10.7612 10.0979 11.1679L10.0974 11.1685L5.99124 15.3565L5.98974 15.358C5.83732 15.5144 5.71916 15.7085 5.63725 15.8777C5.55512 16.0474 5.4779 16.2574 5.44877 16.4679L5.4469 16.4825L5.26184 18.0439L5.26157 18.0463C5.20485 18.5382 5.35854 19.0238 5.72638 19.36C6.09093 19.6931 6.58346 19.805 7.06443 19.7251L7.06481 19.7251L8.67413 19.4602L8.67414 19.4602L8.67897 19.4594C8.88807 19.4236 9.0972 19.342 9.26967 19.2531C9.43778 19.1665 9.632 19.0417 9.78682 18.8799L13.8886 14.6963L13.8889 14.696C14.2839 14.2939 14.6948 13.7456 14.745 13.0545C14.7982 12.3203 14.4341 11.6547 13.7838 11.0621L13.7824 11.0608ZM11.1679 12.2192L11.1682 12.2189C11.4786 11.903 11.7158 11.777 11.9012 11.7542C12.0513 11.7357 12.3268 11.766 12.7742 12.1714C13.2284 12.5856 13.2569 12.8356 13.2489 12.9459C13.2378 13.0992 13.1337 13.3243 12.8186 13.6451L12.8181 13.6456L12.1992 14.2768C12.1606 14.2662 12.1206 14.2586 12.0795 14.2542C11.4237 14.1843 10.8536 13.6489 10.742 12.8908C10.7324 12.8258 10.7148 12.764 10.6903 12.7063L11.1679 12.2192ZM9.492 13.9285C9.79398 14.6209 10.3312 15.1818 11.0063 15.4936L8.71198 17.8336L8.71189 17.8336L8.70386 17.842C8.70381 17.842 8.69493 17.8505 8.67389 17.8653C8.64995 17.8821 8.61874 17.9011 8.58269 17.9197C8.54676 17.9382 8.51129 17.9536 8.48014 17.9648C8.44976 17.9757 8.43155 17.9798 8.42655 17.9808L6.82009 18.2452L6.81897 18.2454C6.78744 18.2506 6.76476 18.2506 6.75004 18.2493C6.74988 18.2414 6.75021 18.2314 6.75161 18.2189L6.7517 18.2181L6.93494 16.672C6.9359 16.6673 6.93902 16.6534 6.94667 16.6303C6.95634 16.6012 6.97015 16.5669 6.98744 16.5312C7.00474 16.4954 7.02291 16.4637 7.03941 16.4386C7.05505 16.4149 7.06425 16.4047 7.06421 16.4047L9.492 13.9285Z" fill="black"/>
</svg>
