<svg width="25" height="25" viewBox="0 0 25 25" fill="none" xmlns="http://www.w3.org/2000/svg">
<path d="M3.125 17.6429L7.35703 21.875" stroke="black" stroke-width="2" stroke-miterlimit="10"/>
<path d="M17.1875 3.125H21.875V7.8125" stroke="black" stroke-width="2" stroke-miterlimit="10"/>
<path d="M21.875 3.125L17.3687 7.63125" stroke="black" stroke-width="2" stroke-miterlimit="10"/>
<path d="M3.125 21.875L7.38594 17.614" stroke="black" stroke-width="2" stroke-miterlimit="10"/>
<path d="M12.3906 8.79297C12.3016 8.86094 12.2094 8.92344 12.1297 9.00391C11.7914 9.34219 11.5648 9.75703 11.4398 10.2055C12.2914 10.3148 13.082 10.6836 13.6992 11.3008C14.4367 12.0383 14.8438 13.0195 14.8438 14.0625C14.8438 15.1055 14.4367 16.0867 13.6992 16.825C12.9617 17.5633 11.9805 17.9688 10.9375 17.9688C9.89453 17.9688 8.91328 17.5625 8.17578 16.825C7.43828 16.0875 7.03125 15.1055 7.03125 14.0625C7.03125 13.3867 7.21797 12.7453 7.53906 12.1711C7.46328 11.768 7.42188 11.3562 7.42188 10.9375C7.42188 10.5484 7.46094 10.1664 7.52578 9.79141C7.36875 9.91797 7.21562 10.0508 7.07109 10.1953C6.03828 11.2289 5.46875 12.6016 5.46875 14.0625C5.46875 15.5234 6.03828 16.8961 7.07109 17.9297C8.10391 18.9633 9.47656 19.5312 10.9375 19.5312C12.3984 19.5312 13.7711 18.9625 14.8039 17.9297C15.8367 16.8969 16.4062 15.5234 16.4062 14.0625C16.4062 12.6016 15.8367 11.2289 14.8039 10.1953C14.1234 9.51484 13.2937 9.04063 12.3906 8.79297Z" fill="black"/>
<path d="M17.9289 7.07031C16.8961 6.0375 15.5234 5.46875 14.0625 5.46875C12.6016 5.46875 11.2289 6.0375 10.1961 7.07031C9.16328 8.10312 8.59375 9.47656 8.59375 10.9375C8.59375 12.3984 9.16328 13.7711 10.1961 14.8047C10.8766 15.4852 11.7062 15.9594 12.6094 16.207C12.6984 16.1391 12.7906 16.0766 12.8703 15.9961C13.2086 15.6578 13.4352 15.243 13.5602 14.7945C12.7086 14.6852 11.918 14.3164 11.3008 13.6992C10.5633 12.9617 10.1562 11.9805 10.1562 10.9375C10.1562 9.89453 10.5633 8.91328 11.3008 8.175C12.0383 7.43672 13.0195 7.03125 14.0625 7.03125C15.1055 7.03125 16.0867 7.4375 16.8242 8.175C17.5617 8.9125 17.9688 9.89453 17.9688 10.9375C17.9688 11.6133 17.782 12.2547 17.4609 12.8289C17.5359 13.232 17.5781 13.6437 17.5781 14.0625C17.5781 14.4516 17.5391 14.8336 17.4742 15.2086C17.6313 15.082 17.7844 14.9492 17.9289 14.8047C18.9617 13.7711 19.5312 12.3984 19.5312 10.9375C19.5312 9.47656 18.9617 8.10391 17.9289 7.07031Z" fill="black"/>
</svg>
