<svg width="20" height="20" viewBox="0 0 20 20" fill="none" xmlns="http://www.w3.org/2000/svg">
<g clip-path="url(#clip0_105_218)">
<path d="M19 8.2229L18 8.88704L10.5533 13.833C10.3857 13.9443 10.1929 14 10 14C9.80715 14 9.61434 13.9443 9.44672 13.833L2 8.88716L1 8.22298L0 7.55876V19C0 19.5523 0.447813 20 1 20H19C19.5523 20 20 19.5523 20 19V7.55869L19 8.2229Z" fill="#FAFBFF"/>
<path d="M10.5547 0.167929C10.2189 -0.0560169 9.78129 -0.0560169 9.44528 0.167929L0.982071 5.81008L1.8852 6.40989L2.78828 7.00977L10 11.7995L17.2117 7.00965L18.1149 6.40985L19.0179 5.80997L10.5547 0.167929Z" fill="#FAFBFF"/>
</g>
<defs>
<clipPath id="clip0_105_218">
<rect width="20" height="20" fill="white"/>
</clipPath>
</defs>
</svg>
