<svg width="26" height="26" viewBox="0 0 26 26" fill="none" xmlns="http://www.w3.org/2000/svg">
<g clip-path="url(#clip0_105_186)">
<path d="M16.5081 16.4288C16.1333 16.0862 16.0032 15.5565 16.1766 15.0792C16.9009 13.0856 15.9221 10.8235 14.0392 10.1394C12.1564 9.4554 9.9538 10.5618 9.22955 12.5554C9.05615 13.0327 8.6163 13.3555 8.10907 13.3777C6.61756 13.4432 5.32253 14.3966 4.81017 15.807C4.11434 17.7223 5.10664 19.8467 7.02179 20.5424C7.50587 20.7183 8.01034 20.7907 8.52198 20.7576C9.60223 20.6877 10.6707 21.0752 11.4547 21.8233C11.8255 22.1767 12.2588 22.445 12.7429 22.6209C14.658 23.3166 16.7825 22.3246 17.4784 20.4092C17.9908 18.9987 17.6098 17.4362 16.5081 16.4288Z" fill="#FAFBFF"/>
<path d="M13.2571 3.37911C11.9298 2.89691 10.3709 4.95722 10.0262 5.90603C9.61691 7.03259 10.2006 8.28231 11.3271 8.69158C12.4537 9.10085 13.7034 8.51719 14.1127 7.39063C14.4574 6.44182 14.5844 3.86131 13.2571 3.37911Z" fill="#FAFBFF"/>
<path d="M18.9782 5.45754C17.6509 4.97534 16.092 7.03565 15.7473 7.98446C15.338 9.11102 15.9217 10.3607 17.0483 10.77C18.1748 11.1793 19.4245 10.5956 19.8338 9.46906C20.1785 8.52025 20.3056 5.93974 18.9782 5.45754Z" fill="#FAFBFF"/>
<path d="M6.98044 6.64983C5.65317 6.16764 4.0942 8.22794 3.7495 9.17676C3.34023 10.3033 3.9239 11.553 5.05045 11.9623C6.17701 12.3716 7.42673 11.7879 7.836 10.6614C8.1807 9.71254 8.30775 7.13204 6.98044 6.64983Z" fill="#FAFBFF"/>
<path d="M21.6919 11.9944C20.3646 11.5122 18.8056 13.5725 18.4609 14.5213C18.0517 15.6478 18.6353 16.8976 19.7619 17.3068C20.8884 17.7161 22.1382 17.1324 22.5474 16.0059C22.8921 15.0571 23.0192 12.4766 21.6919 11.9944Z" fill="#FAFBFF"/>
</g>
<defs>
<clipPath id="clip0_105_186">
<rect width="20" height="20" fill="white" transform="translate(7.01562 0.186432) rotate(19.9658)"/>
</clipPath>
</defs>
</svg>
