<svg width="24" height="24" viewBox="0 0 24 24" fill="none" xmlns="http://www.w3.org/2000/svg">
<path fill-rule="evenodd" clip-rule="evenodd" d="M12 3.25C8.09398 3.25 4.51772 5.42915 2.06779 9.07224C1.50562 9.90567 1.25 10.9749 1.25 12C1.25 13.0249 1.50552 14.0939 2.06746 14.9273C4.51739 18.5706 8.0938 20.75 12 20.75C15.906 20.75 19.4823 18.5708 21.9322 14.9278C22.4944 14.0943 22.75 13.0251 22.75 12C22.75 10.9751 22.4945 9.90609 21.9325 9.07273C19.4826 5.42935 15.9062 3.25 12 3.25ZM3.31221 9.90974C5.5429 6.5924 8.69107 4.75 12 4.75C15.3089 4.75 18.4571 6.5924 20.6878 9.90974L20.6885 9.91073C21.0458 10.4404 21.25 11.1981 21.25 12C21.25 12.8019 21.0458 13.5596 20.6885 14.0893L20.6878 14.0903C18.4571 17.4076 15.3089 19.25 12 19.25C8.69107 19.25 5.5429 17.4076 3.31221 14.0903L3.31154 14.0893C2.95417 13.5596 2.75 12.8019 2.75 12C2.75 11.1981 2.95417 10.4404 3.31154 9.91073L3.31221 9.90974ZM8.75 12C8.75 10.2019 10.2019 8.75 12 8.75C13.7981 8.75 15.25 10.2019 15.25 12C15.25 13.7981 13.7981 15.25 12 15.25C10.2019 15.25 8.75 13.7981 8.75 12ZM12 7.25C9.3735 7.25 7.25 9.3735 7.25 12C7.25 14.6265 9.3735 16.75 12 16.75C14.6265 16.75 16.75 14.6265 16.75 12C16.75 9.3735 14.6265 7.25 12 7.25Z" fill="black"/>
</svg>
